<svg width="36" height="36" viewBox="0 0 36 36" fill="none" xmlns="http://www.w3.org/2000/svg">
<path d="M25.7778 12.2381H23.5556C23.5556 9.34667 21.0667 7 18 7C14.9333 7 12.4444 9.34667 12.4444 12.2381H10.2222C9 12.2381 8 13.181 8 14.3333V26.9048C8 28.0571 9 29 10.2222 29H25.7778C27 29 28 28.0571 28 26.9048V14.3333C28 13.181 27 12.2381 25.7778 12.2381ZM18 9.09524C19.8444 9.09524 21.3333 10.499 21.3333 12.2381H14.6667C14.6667 10.499 16.1556 9.09524 18 9.09524ZM25.7778 26.9048H10.2222V14.3333H25.7778V26.9048ZM18 18.5238C16.1556 18.5238 14.6667 17.12 14.6667 15.381H12.4444C12.4444 18.2724 14.9333 20.619 18 20.619C21.0667 20.619 23.5556 18.2724 23.5556 15.381H21.3333C21.3333 17.12 19.8444 18.5238 18 18.5238Z" fill="#404040"/>
<path d="M25.7778 12.2381H23.5556C23.5556 9.34667 21.0667 7 18 7C14.9333 7 12.4444 9.34667 12.4444 12.2381H10.2222C9 12.2381 8 13.181 8 14.3333V26.9048C8 28.0571 9 29 10.2222 29H25.7778C27 29 28 28.0571 28 26.9048V14.3333C28 13.181 27 12.2381 25.7778 12.2381ZM18 9.09524C19.8444 9.09524 21.3333 10.499 21.3333 12.2381H14.6667C14.6667 10.499 16.1556 9.09524 18 9.09524ZM25.7778 26.9048H10.2222V14.3333H25.7778V26.9048ZM18 18.5238C16.1556 18.5238 14.6667 17.12 14.6667 15.381H12.4444C12.4444 18.2724 14.9333 20.619 18 20.619C21.0667 20.619 23.5556 18.2724 23.5556 15.381H21.3333C21.3333 17.12 19.8444 18.5238 18 18.5238Z" fill="black" fill-opacity="0.2"/>
<path d="M25.7778 12.2381H23.5556C23.5556 9.34667 21.0667 7 18 7C14.9333 7 12.4444 9.34667 12.4444 12.2381H10.2222C9 12.2381 8 13.181 8 14.3333V26.9048C8 28.0571 9 29 10.2222 29H25.7778C27 29 28 28.0571 28 26.9048V14.3333C28 13.181 27 12.2381 25.7778 12.2381ZM18 9.09524C19.8444 9.09524 21.3333 10.499 21.3333 12.2381H14.6667C14.6667 10.499 16.1556 9.09524 18 9.09524ZM25.7778 26.9048H10.2222V14.3333H25.7778V26.9048ZM18 18.5238C16.1556 18.5238 14.6667 17.12 14.6667 15.381H12.4444C12.4444 18.2724 14.9333 20.619 18 20.619C21.0667 20.619 23.5556 18.2724 23.5556 15.381H21.3333C21.3333 17.12 19.8444 18.5238 18 18.5238Z" fill="black" fill-opacity="0.2"/>
</svg>
