<svg xmlns="http://www.w3.org/2000/svg" width="24" height="24" viewBox="0 0 24 24" fill="none">
  <path d="M18.7485 6.81679L17.1787 5.24695L11.9985 10.4271L6.81838 5.24695L5.24854 6.81679L10.4287 11.9969L5.24854 17.1771L6.81838 18.7469L11.9985 13.5668L17.1787 18.7469L18.7485 17.1771L13.5684 11.9969L18.7485 6.81679Z" fill="#404040"/>
  <path d="M18.7485 6.81679L17.1787 5.24695L11.9985 10.4271L6.81838 5.24695L5.24854 6.81679L10.4287 11.9969L5.24854 17.1771L6.81838 18.7469L11.9985 13.5668L17.1787 18.7469L18.7485 17.1771L13.5684 11.9969L18.7485 6.81679Z" fill="black" fill-opacity="0.2"/>
  <path d="M18.7485 6.81679L17.1787 5.24695L11.9985 10.4271L6.81838 5.24695L5.24854 6.81679L10.4287 11.9969L5.24854 17.1771L6.81838 18.7469L11.9985 13.5668L17.1787 18.7469L18.7485 17.1771L13.5684 11.9969L18.7485 6.81679Z" fill="black" fill-opacity="0.2"/>
</svg>