<svg width="36" height="36" viewBox="0 0 36 36" fill="none" xmlns="http://www.w3.org/2000/svg">
<path d="M26.8 11.6316H24.402C24.523 11.2726 24.6 10.8789 24.6 10.4737C24.6 8.55158 23.126 7 21.3 7C20.145 7 19.144 7.62526 18.55 8.56316L18 9.33895L17.45 8.55158C16.856 7.62526 15.855 7 14.7 7C12.874 7 11.4 8.55158 11.4 10.4737C11.4 10.8789 11.477 11.2726 11.598 11.6316H9.2C7.979 11.6316 7.011 12.6621 7.011 13.9474L7 26.6842C7 27.9695 7.979 29 9.2 29H26.8C28.021 29 29 27.9695 29 26.6842V13.9474C29 12.6621 28.021 11.6316 26.8 11.6316ZM21.3 9.31579C21.905 9.31579 22.4 9.83684 22.4 10.4737C22.4 11.1105 21.905 11.6316 21.3 11.6316C20.695 11.6316 20.2 11.1105 20.2 10.4737C20.2 9.83684 20.695 9.31579 21.3 9.31579ZM14.7 9.31579C15.305 9.31579 15.8 9.83684 15.8 10.4737C15.8 11.1105 15.305 11.6316 14.7 11.6316C14.095 11.6316 13.6 11.1105 13.6 10.4737C13.6 9.83684 14.095 9.31579 14.7 9.31579ZM26.8 26.6842H9.2V24.3684H26.8V26.6842ZM26.8 20.8947H9.2V13.9474H14.788L12.5 17.2242L14.282 18.5789L18 13.2526L21.718 18.5789L23.5 17.2242L21.212 13.9474H26.8V20.8947Z" fill="#404040"/>
<path d="M26.8 11.6316H24.402C24.523 11.2726 24.6 10.8789 24.6 10.4737C24.6 8.55158 23.126 7 21.3 7C20.145 7 19.144 7.62526 18.55 8.56316L18 9.33895L17.45 8.55158C16.856 7.62526 15.855 7 14.7 7C12.874 7 11.4 8.55158 11.4 10.4737C11.4 10.8789 11.477 11.2726 11.598 11.6316H9.2C7.979 11.6316 7.011 12.6621 7.011 13.9474L7 26.6842C7 27.9695 7.979 29 9.2 29H26.8C28.021 29 29 27.9695 29 26.6842V13.9474C29 12.6621 28.021 11.6316 26.8 11.6316ZM21.3 9.31579C21.905 9.31579 22.4 9.83684 22.4 10.4737C22.4 11.1105 21.905 11.6316 21.3 11.6316C20.695 11.6316 20.2 11.1105 20.2 10.4737C20.2 9.83684 20.695 9.31579 21.3 9.31579ZM14.7 9.31579C15.305 9.31579 15.8 9.83684 15.8 10.4737C15.8 11.1105 15.305 11.6316 14.7 11.6316C14.095 11.6316 13.6 11.1105 13.6 10.4737C13.6 9.83684 14.095 9.31579 14.7 9.31579ZM26.8 26.6842H9.2V24.3684H26.8V26.6842ZM26.8 20.8947H9.2V13.9474H14.788L12.5 17.2242L14.282 18.5789L18 13.2526L21.718 18.5789L23.5 17.2242L21.212 13.9474H26.8V20.8947Z" fill="black" fill-opacity="0.2"/>
<path d="M26.8 11.6316H24.402C24.523 11.2726 24.6 10.8789 24.6 10.4737C24.6 8.55158 23.126 7 21.3 7C20.145 7 19.144 7.62526 18.55 8.56316L18 9.33895L17.45 8.55158C16.856 7.62526 15.855 7 14.7 7C12.874 7 11.4 8.55158 11.4 10.4737C11.4 10.8789 11.477 11.2726 11.598 11.6316H9.2C7.979 11.6316 7.011 12.6621 7.011 13.9474L7 26.6842C7 27.9695 7.979 29 9.2 29H26.8C28.021 29 29 27.9695 29 26.6842V13.9474C29 12.6621 28.021 11.6316 26.8 11.6316ZM21.3 9.31579C21.905 9.31579 22.4 9.83684 22.4 10.4737C22.4 11.1105 21.905 11.6316 21.3 11.6316C20.695 11.6316 20.2 11.1105 20.2 10.4737C20.2 9.83684 20.695 9.31579 21.3 9.31579ZM14.7 9.31579C15.305 9.31579 15.8 9.83684 15.8 10.4737C15.8 11.1105 15.305 11.6316 14.7 11.6316C14.095 11.6316 13.6 11.1105 13.6 10.4737C13.6 9.83684 14.095 9.31579 14.7 9.31579ZM26.8 26.6842H9.2V24.3684H26.8V26.6842ZM26.8 20.8947H9.2V13.9474H14.788L12.5 17.2242L14.282 18.5789L18 13.2526L21.718 18.5789L23.5 17.2242L21.212 13.9474H26.8V20.8947Z" fill="black" fill-opacity="0.2"/>
</svg>
