<svg width="36" height="36" viewBox="0 0 36 36" fill="none" xmlns="http://www.w3.org/2000/svg">
<path d="M18 9.6125C19.595 9.6125 20.8875 10.905 20.8875 12.5C20.8875 14.095 19.595 15.3875 18 15.3875C16.405 15.3875 15.1125 14.095 15.1125 12.5C15.1125 10.905 16.405 9.6125 18 9.6125ZM18 21.9875C22.0837 21.9875 26.3875 23.995 26.3875 24.875V26.3875H9.6125V24.875C9.6125 23.995 13.9162 21.9875 18 21.9875ZM18 7C14.9612 7 12.5 9.46125 12.5 12.5C12.5 15.5387 14.9612 18 18 18C21.0387 18 23.5 15.5387 23.5 12.5C23.5 9.46125 21.0387 7 18 7ZM18 19.375C14.3287 19.375 7 21.2175 7 24.875V29H29V24.875C29 21.2175 21.6713 19.375 18 19.375Z" fill="#404040"/>
<path d="M18 9.6125C19.595 9.6125 20.8875 10.905 20.8875 12.5C20.8875 14.095 19.595 15.3875 18 15.3875C16.405 15.3875 15.1125 14.095 15.1125 12.5C15.1125 10.905 16.405 9.6125 18 9.6125ZM18 21.9875C22.0837 21.9875 26.3875 23.995 26.3875 24.875V26.3875H9.6125V24.875C9.6125 23.995 13.9162 21.9875 18 21.9875ZM18 7C14.9612 7 12.5 9.46125 12.5 12.5C12.5 15.5387 14.9612 18 18 18C21.0387 18 23.5 15.5387 23.5 12.5C23.5 9.46125 21.0387 7 18 7ZM18 19.375C14.3287 19.375 7 21.2175 7 24.875V29H29V24.875C29 21.2175 21.6713 19.375 18 19.375Z" fill="black" fill-opacity="0.2"/>
<path d="M18 9.6125C19.595 9.6125 20.8875 10.905 20.8875 12.5C20.8875 14.095 19.595 15.3875 18 15.3875C16.405 15.3875 15.1125 14.095 15.1125 12.5C15.1125 10.905 16.405 9.6125 18 9.6125ZM18 21.9875C22.0837 21.9875 26.3875 23.995 26.3875 24.875V26.3875H9.6125V24.875C9.6125 23.995 13.9162 21.9875 18 21.9875ZM18 7C14.9612 7 12.5 9.46125 12.5 12.5C12.5 15.5387 14.9612 18 18 18C21.0387 18 23.5 15.5387 23.5 12.5C23.5 9.46125 21.0387 7 18 7ZM18 19.375C14.3287 19.375 7 21.2175 7 24.875V29H29V24.875C29 21.2175 21.6713 19.375 18 19.375Z" fill="black" fill-opacity="0.2"/>
</svg>
