<svg width="36" height="36" viewBox="0 0 36 36" fill="none" xmlns="http://www.w3.org/2000/svg">
<path d="M13.2767 20.8366H14.2704L14.6226 20.497C13.3899 19.063 12.6478 17.2014 12.6478 15.1762C12.6478 10.6605 16.3082 7.00012 20.8239 7.00012C25.3396 7.00012 29 10.6605 29 15.1762C29 19.6919 25.3396 23.3523 20.8239 23.3523C18.7987 23.3523 16.9371 22.6102 15.5031 21.3775L15.1635 21.7297V22.7234L8.87421 29.0001L7 27.1259L13.2767 20.8366ZM20.8239 20.8366C23.956 20.8366 26.4843 18.3083 26.4843 15.1762C26.4843 12.0441 23.956 9.51585 20.8239 9.51585C17.6918 9.51585 15.1635 12.0441 15.1635 15.1762C15.1635 18.3083 17.6918 20.8366 20.8239 20.8366Z" fill="#404040"/>
<path d="M13.2767 20.8366H14.2704L14.6226 20.497C13.3899 19.063 12.6478 17.2014 12.6478 15.1762C12.6478 10.6605 16.3082 7.00012 20.8239 7.00012C25.3396 7.00012 29 10.6605 29 15.1762C29 19.6919 25.3396 23.3523 20.8239 23.3523C18.7987 23.3523 16.9371 22.6102 15.5031 21.3775L15.1635 21.7297V22.7234L8.87421 29.0001L7 27.1259L13.2767 20.8366ZM20.8239 20.8366C23.956 20.8366 26.4843 18.3083 26.4843 15.1762C26.4843 12.0441 23.956 9.51585 20.8239 9.51585C17.6918 9.51585 15.1635 12.0441 15.1635 15.1762C15.1635 18.3083 17.6918 20.8366 20.8239 20.8366Z" fill="black" fill-opacity="0.2"/>
<path d="M13.2767 20.8366H14.2704L14.6226 20.497C13.3899 19.063 12.6478 17.2014 12.6478 15.1762C12.6478 10.6605 16.3082 7.00012 20.8239 7.00012C25.3396 7.00012 29 10.6605 29 15.1762C29 19.6919 25.3396 23.3523 20.8239 23.3523C18.7987 23.3523 16.9371 22.6102 15.5031 21.3775L15.1635 21.7297V22.7234L8.87421 29.0001L7 27.1259L13.2767 20.8366ZM20.8239 20.8366C23.956 20.8366 26.4843 18.3083 26.4843 15.1762C26.4843 12.0441 23.956 9.51585 20.8239 9.51585C17.6918 9.51585 15.1635 12.0441 15.1635 15.1762C15.1635 18.3083 17.6918 20.8366 20.8239 20.8366Z" fill="black" fill-opacity="0.2"/>
</svg>
